<svg width="700" height="700" viewBox="0 0 700 700" fill="none" xmlns="http://www.w3.org/2000/svg">
<path fill-rule="evenodd" clip-rule="evenodd" d="M148 37.8196C148 35.6164 149.802 33.8303 152.025 33.8303H169.119C171.342 33.8303 173.144 35.6164 173.144 37.8196L173.144 323.726C173.144 331.093 179.169 337.064 186.601 337.064H217.399V37.8196C217.399 35.6164 219.201 33.8303 221.424 33.8303H238.519C240.741 33.8303 242.543 35.6164 242.543 37.8196V361.988H181.578C163.033 361.988 148 347.087 148 328.705L148 37.8196Z" fill="white"/>
<path d="M303.381 361.988C284.836 361.988 269.803 347.087 269.803 328.705V33H342.049C344.271 33 346.073 34.7861 346.073 36.9893V53.9341C346.073 56.1373 344.271 57.9234 342.049 57.9234H294.947V161.94H342.049C344.272 161.94 346.074 163.726 346.074 165.929V182.874C346.074 185.077 344.272 186.863 342.049 186.863H294.947V323.727C294.947 331.093 300.972 337.065 308.403 337.065H342.049C344.271 337.065 346.073 338.851 346.073 341.054V357.999C346.073 360.202 344.271 361.988 342.049 361.988H303.381Z" fill="white"/>
<path d="M404.021 361.988C385.476 361.988 370.443 347.087 370.443 328.705V33L442.688 33C444.911 33 446.713 34.7861 446.713 36.9893V53.9341C446.713 56.1373 444.911 57.9233 442.688 57.9233H395.587V161.94H442.689C444.912 161.94 446.713 163.726 446.713 165.929V182.874C446.713 185.077 444.912 186.863 442.689 186.863H395.587V323.727C395.587 331.093 401.611 337.065 409.043 337.065H442.688C444.911 337.065 446.713 338.851 446.713 341.054V357.999C446.713 360.202 444.911 361.988 442.688 361.988H404.021Z" fill="white"/>
<path d="M527.856 173.57L496.007 141.082L496.007 37.001C496.007 34.7978 494.205 33.0117 491.982 33.0117H474.887C472.664 33.0117 470.863 34.7978 470.863 37.001V358.011C470.863 360.214 472.665 362 474.887 362H491.982C494.205 362 496.007 360.214 496.007 358.011V177.622L527.856 212.264V358.011C527.856 360.214 529.658 362 531.881 362H548.975C551.198 362 553 360.214 553 358.011V214.504C553 203.644 548.533 193.254 540.631 185.731L528.204 173.901L553 149.323V37.0037C553 34.8005 551.198 33.0144 548.975 33.0144L531.88 33.0144C529.657 33.0144 527.856 34.8005 527.856 37.0037V173.57Z" fill="white"/>
<path d="M188.114 528.632C175.045 528.632 165.242 524.961 158.707 517.618C152.172 510.175 148.653 500.217 148.151 487.744C148.05 485.029 148 480.603 148 474.467C148 468.231 148.05 463.704 148.151 460.888C148.653 448.415 152.172 438.508 158.707 431.165C165.242 423.722 175.045 420 188.114 420C197.062 420 204.502 421.66 210.434 424.979C216.365 428.198 220.739 432.322 223.554 437.351C226.469 442.28 228.078 447.359 228.38 452.59V452.891C228.38 453.696 228.078 454.35 227.475 454.853C226.872 455.356 226.118 455.607 225.213 455.607H222.197C220.387 455.607 219.281 454.551 218.879 452.439C216.969 443.889 213.5 437.854 208.473 434.333C203.446 430.813 196.66 429.053 188.114 429.053C178.664 429.053 171.325 431.718 166.097 437.049C160.869 442.38 158.054 450.578 157.652 461.642C157.551 464.358 157.501 468.533 157.501 474.165C157.501 479.798 157.551 484.073 157.652 486.99C158.054 498.054 160.869 506.252 166.097 511.583C171.325 516.914 178.664 519.58 188.114 519.58C196.66 519.58 203.446 517.819 208.473 514.299C213.5 510.778 216.969 504.743 218.879 496.194C219.281 494.081 220.387 493.025 222.197 493.025H225.213C226.118 493.025 226.872 493.327 227.475 493.93C228.179 494.433 228.48 495.137 228.38 496.043C228.078 501.273 226.469 506.403 223.554 511.432C220.739 516.361 216.365 520.485 210.434 523.804C204.502 527.023 197.062 528.632 188.114 528.632Z" fill="white"/>
<path d="M301.425 528.632C275.587 528.632 262.316 514.752 261.612 486.99C261.512 483.972 261.462 479.748 261.462 474.316C261.462 468.885 261.512 464.66 261.612 461.642C262.014 447.963 265.734 437.602 272.772 430.561C279.81 423.52 289.361 420 301.425 420C313.49 420 323.041 423.52 330.078 430.561C337.116 437.602 340.836 447.963 341.238 461.642C341.439 467.678 341.539 471.902 341.539 474.316C341.539 476.73 341.439 480.955 341.238 486.99C340.534 514.752 327.263 528.632 301.425 528.632ZM301.425 519.58C310.473 519.58 317.662 516.864 322.99 511.432C328.419 505.9 331.335 497.501 331.737 486.236C331.938 480.2 332.039 476.227 332.039 474.316C332.039 472.405 331.938 468.432 331.737 462.397C331.335 451.131 328.419 442.783 322.99 437.351C317.561 431.819 310.373 429.053 301.425 429.053C292.477 429.053 285.289 431.819 279.86 437.351C274.431 442.783 271.515 451.131 271.113 462.397C271.013 465.414 270.962 469.387 270.962 474.316C270.962 479.245 271.013 483.218 271.113 486.236C271.515 497.501 274.381 505.9 279.709 511.432C285.138 516.864 292.377 519.58 301.425 519.58Z" fill="white"/>
<path d="M383.932 527.124C382.927 527.124 382.123 526.822 381.52 526.218C380.916 525.615 380.615 524.81 380.615 523.804V424.979C380.615 423.973 380.916 423.168 381.52 422.565C382.123 421.861 382.927 421.509 383.932 421.509H387.099C388.406 421.509 389.462 422.112 390.266 423.319L445.914 508.415V424.979C445.914 423.973 446.215 423.168 446.819 422.565C447.422 421.861 448.226 421.509 449.232 421.509H451.946C453.052 421.509 453.906 421.811 454.51 422.414C455.113 423.018 455.415 423.873 455.415 424.979V523.653C455.415 524.659 455.113 525.514 454.51 526.218C453.906 526.822 453.102 527.124 452.097 527.124H448.779C447.472 527.124 446.416 526.52 445.612 525.313L390.116 440.519V523.804C390.116 524.81 389.764 525.615 389.06 526.218C388.457 526.822 387.652 527.124 386.647 527.124H383.932Z" fill="white"/>
<path d="M497.762 486.236C496.756 486.236 495.952 485.934 495.349 485.33C494.745 484.727 494.444 483.922 494.444 482.916V480.804C494.444 479.798 494.745 478.993 495.349 478.39C495.952 477.786 496.756 477.485 497.762 477.485H542.249C543.255 477.485 544.059 477.786 544.662 478.39C545.265 478.993 545.567 479.798 545.567 480.804V482.916C545.567 483.922 545.265 484.727 544.662 485.33C544.059 485.934 543.255 486.236 542.249 486.236H497.762Z" fill="white"/>
<path d="M155.691 665.932C154.686 665.932 153.881 665.63 153.278 665.026C152.675 664.423 152.373 663.618 152.373 662.612L152.373 563.787C152.373 562.781 152.675 561.976 153.278 561.373C153.881 560.669 154.686 560.317 155.691 560.317H158.858C160.165 560.317 161.221 560.92 162.025 562.127L217.672 647.223V563.787C217.672 562.781 217.974 561.976 218.577 561.373C219.18 560.669 219.985 560.317 220.99 560.317H223.705C224.811 560.317 225.665 560.619 226.268 561.222C226.872 561.826 227.173 562.681 227.173 563.787V662.461C227.173 663.467 226.872 664.322 226.268 665.026C225.665 665.63 224.861 665.932 223.855 665.932H220.538C219.231 665.932 218.175 665.328 217.371 664.121L161.874 579.327V662.612C161.874 663.618 161.522 664.423 160.819 665.026C160.215 665.63 159.411 665.932 158.406 665.932H155.691Z" fill="white"/>
<path d="M273.862 665.932C272.856 665.932 272.052 665.63 271.449 665.026C270.846 664.423 270.544 663.618 270.544 662.612V563.787C270.544 562.781 270.846 561.976 271.449 561.373C272.052 560.669 272.856 560.317 273.862 560.317H332.676C333.782 560.317 334.637 560.619 335.24 561.222C335.843 561.826 336.145 562.681 336.145 563.787V566.05C336.145 567.056 335.793 567.861 335.089 568.464C334.486 569.068 333.681 569.369 332.676 569.369H280.045V607.843H329.358C330.464 607.843 331.319 608.145 331.922 608.749C332.525 609.352 332.827 610.207 332.827 611.314V613.577C332.827 614.583 332.475 615.387 331.771 615.991C331.168 616.594 330.364 616.896 329.358 616.896H280.045V656.879H333.883C334.988 656.879 335.843 657.181 336.446 657.784C337.049 658.388 337.351 659.243 337.351 660.349V662.612C337.351 663.618 336.999 664.423 336.295 665.026C335.692 665.63 334.888 665.932 333.883 665.932H273.862Z" fill="white"/>
<path d="M409.581 667.44C396.511 667.44 386.709 663.769 380.174 656.426C373.639 648.983 370.12 639.025 369.618 626.552C369.517 623.837 369.467 619.411 369.467 613.275C369.467 607.039 369.517 602.512 369.618 599.696C370.12 587.223 373.639 577.316 380.174 569.973C386.709 562.53 396.511 558.808 409.581 558.808C418.529 558.808 425.969 560.468 431.901 563.787C437.832 567.006 442.206 571.13 445.021 576.159C447.936 581.088 449.545 586.167 449.847 591.398V591.699C449.847 592.504 449.545 593.158 448.942 593.661C448.338 594.164 447.584 594.415 446.68 594.415H443.663C441.854 594.415 440.748 593.359 440.346 591.247C438.436 582.697 434.967 576.662 429.94 573.141C424.913 569.621 418.127 567.861 409.581 567.861C400.131 567.861 392.792 570.526 387.564 575.857C382.336 581.188 379.521 589.386 379.118 600.45C379.018 603.166 378.968 607.341 378.968 612.973C378.968 618.606 379.018 622.881 379.118 625.798C379.521 636.862 382.336 645.06 387.564 650.391C392.792 655.722 400.131 658.388 409.581 658.388C418.127 658.388 424.913 656.627 429.94 653.107C434.967 649.586 438.436 643.551 440.346 635.002C440.748 632.889 441.854 631.833 443.663 631.833H446.68C447.584 631.833 448.338 632.135 448.942 632.738C449.645 633.241 449.947 633.945 449.847 634.851C449.545 640.081 447.936 645.211 445.021 650.24C442.206 655.169 437.832 659.293 431.901 662.612C425.969 665.831 418.529 667.44 409.581 667.44Z" fill="white"/>
<path d="M513.542 665.932C512.537 665.932 511.732 665.63 511.129 665.026C510.526 664.423 510.224 663.618 510.224 662.612V569.369H480.365C479.359 569.369 478.555 569.068 477.952 568.464C477.349 567.861 477.047 567.056 477.047 566.05V563.787C477.047 562.781 477.349 561.976 477.952 561.373C478.555 560.669 479.359 560.317 480.365 560.317H549.434C550.54 560.317 551.394 560.619 551.998 561.222C552.601 561.826 552.902 562.681 552.902 563.787V566.05C552.902 567.056 552.55 567.861 551.847 568.464C551.244 569.068 550.439 569.369 549.434 569.369H519.725V662.612C519.725 663.618 519.373 664.423 518.669 665.026C518.066 665.63 517.262 665.932 516.257 665.932H513.542Z" fill="white"/>
</svg>
