<svg width="1037" height="259" viewBox="0 0 1037 259" fill="none" xmlns="http://www.w3.org/2000/svg">
<path fill-rule="evenodd" clip-rule="evenodd" d="M0 10.3402C0 8.69822 1.34108 7.36713 2.99538 7.36713L15.7185 7.36713C17.3728 7.36713 18.7139 8.69821 18.7139 10.3402L18.7139 223.415C18.7139 228.905 23.1978 233.356 28.7291 233.356H51.6514L51.6514 10.3402C51.6514 8.69822 52.9925 7.36713 54.6468 7.36713L67.3699 7.36713C69.0242 7.36713 70.3653 8.69822 70.3653 10.3402L70.3653 251.93H24.9909C11.1888 251.93 0 240.825 0 227.126L0 10.3402Z" fill="white"/>
<path d="M115.644 251.931C101.842 251.931 90.6536 240.825 90.6536 227.126L90.6536 6.74836L144.424 6.74836C146.078 6.74836 147.419 8.07944 147.419 9.72142V22.3497C147.419 23.9917 146.078 25.3228 144.424 25.3228H109.367V102.842L144.424 102.842C146.078 102.842 147.419 104.173 147.419 105.815V118.443C147.419 120.085 146.078 121.416 144.424 121.416L109.367 121.416L109.367 223.416C109.367 228.906 113.851 233.356 119.383 233.356H144.424C146.078 233.356 147.419 234.687 147.419 236.329L147.419 248.957C147.419 250.599 146.078 251.931 144.424 251.931H115.644Z" fill="white"/>
<path d="M190.547 251.931C176.745 251.931 165.556 240.825 165.556 227.126V6.74833L219.326 6.74833C220.981 6.74833 222.322 8.07941 222.322 9.72139V22.3497C222.322 23.9916 220.981 25.3227 219.326 25.3227L184.27 25.3227V102.842H219.327C220.981 102.842 222.322 104.173 222.322 105.815V118.443C222.322 120.085 220.981 121.416 219.327 121.416H184.27V223.416C184.27 228.906 188.754 233.356 194.285 233.356H219.326C220.981 233.356 222.322 234.687 222.322 236.329L222.322 248.957C222.322 250.599 220.981 251.931 219.326 251.931H190.547Z" fill="white"/>
<path d="M282.713 111.509L259.009 87.2975V9.73009C259.009 8.08812 257.668 6.75704 256.014 6.75704L243.291 6.75704C241.636 6.75704 240.295 8.08812 240.295 9.73009L240.295 248.966C240.295 250.608 241.636 251.939 243.291 251.939H256.014C257.668 251.939 259.009 250.608 259.009 248.966V114.53L282.714 140.347V248.966C282.714 250.608 284.055 251.939 285.709 251.939H298.432C300.086 251.939 301.427 250.608 301.427 248.966V142.016C301.427 133.923 298.103 126.179 292.222 120.573L282.972 111.757L301.427 93.4396V9.73212C301.427 8.09015 300.086 6.75907 298.432 6.75907L285.709 6.75907C284.054 6.75907 282.713 8.09015 282.713 9.73214V111.509Z" fill="white"/>
<path d="M672.212 113.131C659.142 113.131 649.34 109.46 642.805 102.117C636.27 94.6738 632.751 84.7158 632.248 72.2432C632.148 69.5274 632.098 65.1016 632.098 58.9659C632.098 52.7296 632.148 48.2033 632.248 45.3869C632.751 32.9143 636.27 23.0066 642.805 15.6639C649.34 8.22053 659.142 4.49887 672.212 4.49887C681.16 4.49887 688.6 6.15853 694.531 9.47785C700.463 12.6966 704.836 16.8206 707.651 21.8499C710.567 26.7786 712.176 31.8581 712.477 37.0886V37.3903C712.477 38.195 712.176 38.8488 711.572 39.3518C710.969 39.8547 710.215 40.1061 709.31 40.1061H706.294C704.484 40.1061 703.379 39.05 702.976 36.9377C701.066 28.3879 697.598 22.3528 692.571 18.8323C687.544 15.3118 680.758 13.5516 672.212 13.5516C662.761 13.5516 655.422 16.2171 650.194 21.5481C644.966 26.8791 642.151 35.0769 641.749 46.1413C641.649 48.8571 641.598 53.0314 641.598 58.6642C641.598 64.297 641.649 68.5718 641.749 71.4888C642.151 82.5532 644.966 90.7509 650.194 96.082C655.422 101.413 662.761 104.079 672.212 104.079C680.758 104.079 687.544 102.318 692.571 98.7978C697.598 95.2773 701.066 89.2422 702.976 80.6924C703.379 78.5801 704.484 77.5239 706.294 77.5239H709.31C710.215 77.5239 710.969 77.8257 711.572 78.4292C712.276 78.9322 712.578 79.6362 712.477 80.5415C712.176 85.772 710.567 90.9018 707.651 95.9311C704.836 100.86 700.463 104.984 694.531 108.303C688.6 111.522 681.16 113.131 672.212 113.131Z" fill="white"/>
<path d="M785.523 113.131C759.685 113.131 746.414 99.2504 745.71 71.4888C745.609 68.4713 745.559 64.2467 745.559 58.815C745.559 53.3834 745.609 49.1588 745.71 46.1413C746.112 32.4616 749.832 22.1013 756.87 15.0603C763.907 8.01936 773.458 4.49887 785.523 4.49887C797.587 4.49887 807.138 8.01936 814.176 15.0603C821.213 22.1013 824.933 32.4616 825.335 46.1413C825.537 52.1764 825.637 56.401 825.637 58.815C825.637 61.2291 825.537 65.4537 825.335 71.4888C824.632 99.2504 811.361 113.131 785.523 113.131ZM785.523 104.079C794.571 104.079 801.759 101.363 807.088 95.9311C812.517 90.3989 815.433 82 815.835 70.7344C816.036 64.6993 816.136 60.7262 816.136 58.815C816.136 56.9039 816.036 52.9308 815.835 46.8957C815.433 35.6301 812.517 27.2815 807.088 21.8499C801.659 16.3177 794.471 13.5516 785.523 13.5516C776.575 13.5516 769.386 16.3177 763.957 21.8499C758.528 27.2815 755.613 35.6301 755.211 46.8957C755.11 49.9132 755.06 53.8864 755.06 58.815C755.06 63.7437 755.11 67.7169 755.211 70.7344C755.613 82 758.478 90.3989 763.807 95.9311C769.236 101.363 776.474 104.079 785.523 104.079Z" fill="white"/>
<path d="M868.03 111.622C867.025 111.622 866.22 111.321 865.617 110.717C865.014 110.114 864.712 109.309 864.712 108.303V9.47785C864.712 8.472 865.014 7.66732 865.617 7.0638C866.22 6.3597 867.025 6.00765 868.03 6.00765H871.197C872.504 6.00765 873.56 6.61117 874.364 7.8182L930.011 92.9135V9.47785C930.011 8.472 930.313 7.66732 930.916 7.0638C931.519 6.3597 932.324 6.00765 933.329 6.00765H936.044C937.15 6.00765 938.004 6.30941 938.607 6.91293C939.211 7.51644 939.512 8.37141 939.512 9.47785V108.152C939.512 109.158 939.211 110.013 938.607 110.717C938.004 111.321 937.2 111.622 936.194 111.622H932.877C931.57 111.622 930.514 111.019 929.71 109.812L874.213 25.0183V108.303C874.213 109.309 873.861 110.114 873.157 110.717C872.554 111.321 871.75 111.622 870.745 111.622H868.03Z" fill="white"/>
<path d="M981.859 70.7344C980.854 70.7344 980.049 70.4327 979.446 69.8292C978.843 69.2256 978.541 68.421 978.541 67.4151V65.3028C978.541 64.297 978.843 63.4923 979.446 62.8888C980.049 62.2852 980.854 61.9835 981.859 61.9835H1026.35C1027.35 61.9835 1028.16 62.2852 1028.76 62.8888C1029.36 63.4923 1029.66 64.297 1029.66 65.3028V67.4151C1029.66 68.421 1029.36 69.2256 1028.76 69.8292C1028.16 70.4327 1027.35 70.7344 1026.35 70.7344H981.859Z" fill="white"/>
<path d="M639.789 250.43C638.783 250.43 637.979 250.129 637.376 249.525C636.773 248.922 636.471 248.117 636.471 247.111V148.286C636.471 147.28 636.773 146.475 637.376 145.872C637.979 145.168 638.783 144.816 639.789 144.816H642.956C644.263 144.816 645.318 145.419 646.123 146.626L701.77 231.722V148.286C701.77 147.28 702.072 146.475 702.675 145.872C703.278 145.168 704.082 144.816 705.088 144.816H707.802C708.908 144.816 709.763 145.117 710.366 145.721C710.969 146.324 711.271 147.179 711.271 148.286V246.96C711.271 247.966 710.969 248.821 710.366 249.525C709.763 250.129 708.958 250.43 707.953 250.43H704.635C703.328 250.43 702.273 249.827 701.468 248.62L645.972 163.826V247.111C645.972 248.117 645.62 248.922 644.916 249.525C644.313 250.129 643.509 250.43 642.503 250.43H639.789Z" fill="white"/>
<path d="M757.959 250.43C756.954 250.43 756.15 250.129 755.546 249.525C754.943 248.922 754.642 248.117 754.642 247.111V148.286C754.642 147.28 754.943 146.475 755.546 145.872C756.15 145.168 756.954 144.816 757.959 144.816H816.774C817.88 144.816 818.734 145.117 819.337 145.721C819.941 146.324 820.242 147.179 820.242 148.286V150.549C820.242 151.555 819.89 152.36 819.187 152.963C818.583 153.567 817.779 153.868 816.774 153.868H764.142V192.342H813.456C814.562 192.342 815.416 192.644 816.02 193.248C816.623 193.851 816.925 194.706 816.925 195.813V198.076C816.925 199.082 816.573 199.886 815.869 200.49C815.266 201.093 814.461 201.395 813.456 201.395H764.142V241.378H817.98C819.086 241.378 819.941 241.68 820.544 242.283C821.147 242.887 821.449 243.742 821.449 244.848V247.111C821.449 248.117 821.097 248.922 820.393 249.525C819.79 250.129 818.986 250.43 817.98 250.43H757.959Z" fill="white"/>
<path d="M893.679 251.939C880.609 251.939 870.807 248.268 864.272 240.925C857.737 233.482 854.218 223.524 853.715 211.051C853.615 208.335 853.564 203.91 853.564 197.774C853.564 191.538 853.615 187.011 853.715 184.195C854.218 171.722 857.737 161.815 864.272 154.472C870.807 147.029 880.609 143.307 893.679 143.307C902.627 143.307 910.066 144.967 915.998 148.286C921.93 151.505 926.303 155.629 929.118 160.658C932.034 165.587 933.642 170.666 933.944 175.897V176.198C933.944 177.003 933.642 177.657 933.039 178.16C932.436 178.663 931.682 178.914 930.777 178.914H927.761C925.951 178.914 924.845 177.858 924.443 175.746C922.533 167.196 919.065 161.161 914.038 157.64C909.011 154.12 902.225 152.36 893.679 152.36C884.228 152.36 876.889 155.025 871.661 160.356C866.433 165.687 863.618 173.885 863.216 184.949C863.116 187.665 863.065 191.839 863.065 197.472C863.065 203.105 863.116 207.38 863.216 210.297C863.618 221.361 866.433 229.559 871.661 234.89C876.889 240.221 884.228 242.887 893.679 242.887C902.225 242.887 909.011 241.126 914.038 237.606C919.065 234.085 922.533 228.05 924.443 219.5C924.845 217.388 925.951 216.332 927.761 216.332H930.777C931.682 216.332 932.436 216.634 933.039 217.237C933.743 217.74 934.045 218.444 933.944 219.35C933.642 224.58 932.034 229.71 929.118 234.739C926.303 239.668 921.93 243.792 915.998 247.111C910.066 250.33 902.627 251.939 893.679 251.939Z" fill="white"/>
<path d="M997.64 250.43C996.634 250.43 995.83 250.129 995.227 249.525C994.624 248.922 994.322 248.117 994.322 247.111V153.868H964.462C963.457 153.868 962.653 153.567 962.049 152.963C961.446 152.36 961.145 151.555 961.145 150.549V148.286C961.145 147.28 961.446 146.475 962.049 145.872C962.653 145.168 963.457 144.816 964.462 144.816H1033.53C1034.64 144.816 1035.49 145.117 1036.1 145.721C1036.7 146.324 1037 147.179 1037 148.286V150.549C1037 151.555 1036.65 152.36 1035.94 152.963C1035.34 153.567 1034.54 153.868 1033.53 153.868H1003.82V247.111C1003.82 248.117 1003.47 248.922 1002.77 249.525C1002.16 250.129 1001.36 250.43 1000.35 250.43H997.64Z" fill="white"/>
<path fill-rule="evenodd" clip-rule="evenodd" d="M395.185 24.9913L416.844 8.34484e-05L420.118 3.77721L398.458 28.7685L395.185 24.9913Z" fill="white"/>
<path fill-rule="evenodd" clip-rule="evenodd" d="M395.188 59.9791L447.17 8.34484e-05L450.444 3.77721L398.462 63.7562L395.188 59.9791Z" fill="white"/>
<path fill-rule="evenodd" clip-rule="evenodd" d="M395.189 94.9668L477.493 8.34484e-05L480.767 3.77721L398.462 98.744L395.189 94.9668Z" fill="white"/>
<path fill-rule="evenodd" clip-rule="evenodd" d="M395.186 129.955L507.813 8.34484e-05L511.087 3.77721L398.46 133.732L395.186 129.955Z" fill="white"/>
<path fill-rule="evenodd" clip-rule="evenodd" d="M395.186 164.942L525.14 14.9942L528.414 18.7713L398.459 168.719L395.186 164.942Z" fill="white"/>
<path fill-rule="evenodd" clip-rule="evenodd" d="M395.186 199.93L525.14 49.9824L528.414 53.7595L398.459 203.707L395.186 199.93Z" fill="white"/>
<path fill-rule="evenodd" clip-rule="evenodd" d="M395.186 234.918L525.14 84.9707L528.414 88.7478L398.459 238.695L395.186 234.918Z" fill="white"/>
<path fill-rule="evenodd" clip-rule="evenodd" d="M408.181 254.912L525.14 119.959L528.414 123.736L411.455 258.689L408.181 254.912Z" fill="white"/>
<path fill-rule="evenodd" clip-rule="evenodd" d="M438.504 254.912L525.14 154.947L528.414 158.724L441.777 258.689L438.504 254.912Z" fill="white"/>
<path fill-rule="evenodd" clip-rule="evenodd" d="M468.826 254.91L525.14 189.932L528.414 193.71L472.1 258.687L468.826 254.91Z" fill="white"/>
<path fill-rule="evenodd" clip-rule="evenodd" d="M499.149 254.913L525.14 224.924L528.414 228.701L502.423 258.69L499.149 254.913Z" fill="white"/>
</svg>
