<svg width="195" height="49" viewBox="0 0 195 49" fill="none" xmlns="http://www.w3.org/2000/svg">
<path fill-rule="evenodd" clip-rule="evenodd" d="M0 1.94447C0 1.6357 0.252179 1.3854 0.563258 1.3854L2.95574 1.3854C3.26682 1.3854 3.519 1.6357 3.519 1.94446L3.519 42.0116C3.519 43.044 4.36217 43.8809 5.40228 43.8809H9.71266L9.71266 1.94447C9.71266 1.6357 9.96484 1.3854 10.2759 1.3854L12.6684 1.3854C12.9795 1.3854 13.2317 1.6357 13.2317 1.94447L13.2317 47.3736H4.69934C2.10397 47.3736 0 45.2854 0 42.7093L0 1.94447Z" fill="#1E1E1E"/>
<path d="M21.7461 47.3737C19.1507 47.3737 17.0467 45.2854 17.0467 42.7094L17.0467 1.26905L27.1578 1.26905C27.4688 1.26905 27.721 1.51935 27.721 1.82811V4.20276C27.721 4.51152 27.4688 4.76182 27.1578 4.76182H20.5657V19.3387H27.1578C27.4689 19.3387 27.7211 19.589 27.7211 19.8978V22.2724C27.7211 22.5812 27.4689 22.8315 27.1578 22.8315H20.5657L20.5657 42.0117C20.5657 43.044 21.4089 43.8809 22.449 43.8809H27.1578C27.4688 43.8809 27.721 44.1312 27.721 44.44V46.8146C27.721 47.1234 27.4688 47.3737 27.1578 47.3737H21.7461Z" fill="#1E1E1E"/>
<path d="M35.8309 47.3737C33.2356 47.3737 31.1316 45.2854 31.1316 42.7094L31.1316 1.26904L41.2426 1.26904C41.5537 1.26904 41.8059 1.51934 41.8059 1.8281V4.20276C41.8059 4.51152 41.5537 4.76182 41.2426 4.76182L34.6506 4.76182V19.3387H41.2427C41.5538 19.3387 41.806 19.589 41.806 19.8978V22.2724C41.806 22.5812 41.5538 22.8315 41.2427 22.8315H34.6506V42.0117C34.6506 43.044 35.4938 43.8809 36.5339 43.8809H41.2426C41.5537 43.8809 41.8059 44.1312 41.8059 44.44V46.8146C41.8059 47.1234 41.5537 47.3737 41.2426 47.3737H35.8309Z" fill="#1E1E1E"/>
<path d="M53.1621 20.9686L48.7047 16.4157L48.7047 1.82974C48.7047 1.52098 48.4525 1.27068 48.1415 1.27068H45.749C45.4379 1.27068 45.1857 1.52098 45.1857 1.82974V46.8163C45.1857 47.125 45.4379 47.3753 45.749 47.3753H48.1415C48.4525 47.3753 48.7047 47.125 48.7047 46.8163V21.5365L53.1621 26.3912V46.8163C53.1621 47.125 53.4143 47.3753 53.7254 47.3753H56.1179C56.429 47.3753 56.6811 47.125 56.6811 46.8163V26.7052C56.6811 25.1833 56.056 23.7271 54.9501 22.6729L53.2108 21.0151L56.6811 17.5707V1.83012C56.6811 1.52136 56.4289 1.27106 56.1178 1.27106H53.7253C53.4142 1.27106 53.1621 1.52136 53.1621 1.83013V20.9686Z" fill="#1E1E1E"/>
<path d="M126.404 21.2734C123.947 21.2734 122.103 20.5831 120.874 19.2023C119.646 17.8027 118.984 15.9301 118.889 13.5848C118.871 13.0741 118.861 12.2418 118.861 11.0881C118.861 9.91538 118.871 9.06423 118.889 8.53463C118.984 6.18925 119.646 4.32619 120.874 2.94544C122.103 1.54578 123.947 0.845947 126.404 0.845947C128.087 0.845947 129.486 1.15803 130.601 1.78221C131.717 2.38747 132.539 3.16295 133.068 4.10867C133.617 5.03547 133.919 5.99065 133.976 6.9742V7.03094C133.976 7.18225 133.919 7.3052 133.806 7.39977C133.692 7.49434 133.55 7.54162 133.38 7.54162H132.813C132.473 7.54162 132.265 7.34302 132.189 6.94582C131.83 5.3381 131.178 4.20324 130.233 3.54124C129.287 2.87924 128.011 2.54824 126.404 2.54824C124.627 2.54824 123.247 3.04947 122.264 4.05193C121.281 5.05439 120.752 6.59591 120.676 8.67649C120.657 9.18717 120.648 9.97212 120.648 11.0313C120.648 12.0905 120.657 12.8944 120.676 13.4429C120.752 15.5235 121.281 17.065 122.264 18.0675C123.247 19.0699 124.627 19.5711 126.404 19.5711C128.011 19.5711 129.287 19.2401 130.233 18.5781C131.178 17.9161 131.83 16.7813 132.189 15.1736C132.265 14.7764 132.473 14.5778 132.813 14.5778L133.38 14.5778C133.55 14.5778 133.692 14.6345 133.806 14.748C133.938 14.8426 133.995 14.975 133.976 15.1452C133.919 16.1287 133.617 17.0934 133.068 18.0391C132.539 18.9659 131.717 19.7414 130.601 20.3656C129.486 20.9708 128.087 21.2734 126.404 21.2734Z" fill="#1E1E1E"/>
<path d="M147.712 21.2734C142.853 21.2734 140.357 18.6633 140.225 13.4429C140.206 12.8755 140.197 12.0811 140.197 11.0597C140.197 10.0383 140.206 9.24392 140.225 8.67649C140.301 6.10413 141 4.15596 142.324 2.83195C143.647 1.50795 145.443 0.845947 147.712 0.845947C149.98 0.845947 151.776 1.50795 153.1 2.83195C154.423 4.15596 155.122 6.10413 155.198 8.67649C155.236 9.81135 155.255 10.6057 155.255 11.0597C155.255 11.5136 155.236 12.308 155.198 13.4429C155.066 18.6633 152.57 21.2734 147.712 21.2734ZM147.712 19.5711C149.413 19.5711 150.765 19.0605 151.767 18.0391C152.788 16.9988 153.336 15.4194 153.411 13.301C153.449 12.1662 153.468 11.4191 153.468 11.0597C153.468 10.7003 153.449 9.9532 153.411 8.81834C153.336 6.69994 152.788 5.13005 151.767 4.10867C150.746 3.06838 149.394 2.54824 147.712 2.54824C146.029 2.54824 144.677 3.06838 143.656 4.10867C142.635 5.13005 142.087 6.69994 142.012 8.81834C141.993 9.38577 141.983 10.1329 141.983 11.0597C141.983 11.9865 141.993 12.7336 142.012 13.301C142.087 15.4194 142.626 16.9988 143.628 18.0391C144.649 19.0605 146.01 19.5711 147.712 19.5711Z" fill="#1E1E1E"/>
<path d="M163.226 20.9897C163.037 20.9897 162.886 20.933 162.773 20.8195C162.659 20.706 162.603 20.5547 162.603 20.3656V1.78221C162.603 1.59306 162.659 1.44175 162.773 1.32826C162.886 1.19586 163.037 1.12966 163.226 1.12966H163.822C164.068 1.12966 164.266 1.24315 164.417 1.47012L174.882 17.4717V1.78221C174.882 1.59306 174.938 1.44175 175.052 1.32826C175.165 1.19586 175.316 1.12966 175.505 1.12966H176.016C176.224 1.12966 176.384 1.18641 176.498 1.29989C176.611 1.41338 176.668 1.57415 176.668 1.78221V20.3372C176.668 20.5263 176.611 20.6871 176.498 20.8195C176.384 20.933 176.233 20.9897 176.044 20.9897H175.42C175.175 20.9897 174.976 20.8762 174.825 20.6493L164.389 4.70447V20.3656C164.389 20.5547 164.323 20.706 164.191 20.8195C164.077 20.933 163.926 20.9897 163.737 20.9897H163.226Z" fill="#1E1E1E"/>
<path d="M184.631 13.301C184.442 13.301 184.291 13.2443 184.177 13.1308C184.064 13.0173 184.007 12.866 184.007 12.6769V12.2797C184.007 12.0905 184.064 11.9392 184.177 11.8257C184.291 11.7122 184.442 11.6555 184.631 11.6555L192.997 11.6555C193.186 11.6555 193.337 11.7122 193.45 11.8257C193.564 11.9392 193.621 12.0905 193.621 12.2797V12.6769C193.621 12.866 193.564 13.0173 193.45 13.1308C193.337 13.2443 193.186 13.301 192.997 13.301L184.631 13.301Z" fill="#1E1E1E"/>
<path d="M120.307 47.0915C120.118 47.0915 119.967 47.0348 119.854 46.9213C119.74 46.8078 119.683 46.6565 119.683 46.4673V27.884C119.683 27.6949 119.74 27.5435 119.854 27.4301C119.967 27.2977 120.118 27.2315 120.307 27.2315H120.903C121.149 27.2315 121.347 27.3449 121.498 27.5719L131.962 43.5735V27.884C131.962 27.6949 132.019 27.5435 132.133 27.4301C132.246 27.2977 132.397 27.2315 132.586 27.2315H133.097C133.305 27.2315 133.465 27.2882 133.579 27.4017C133.692 27.5152 133.749 27.6759 133.749 27.884V46.439C133.749 46.6281 133.692 46.7889 133.579 46.9213C133.465 47.0348 133.314 47.0915 133.125 47.0915H132.501C132.255 47.0915 132.057 46.978 131.906 46.7511L121.47 30.8063V46.4673C121.47 46.6565 121.404 46.8078 121.272 46.9213C121.158 47.0348 121.007 47.0915 120.818 47.0915H120.307Z" fill="#1E1E1E"/>
<path d="M142.528 47.0915C142.339 47.0915 142.188 47.0348 142.075 46.9213C141.961 46.8078 141.905 46.6565 141.905 46.4673V27.884C141.905 27.6949 141.961 27.5435 142.075 27.4301C142.188 27.2977 142.339 27.2315 142.528 27.2315L153.588 27.2315C153.796 27.2315 153.957 27.2882 154.07 27.4017C154.184 27.5152 154.24 27.6759 154.24 27.884V28.3096C154.24 28.4987 154.174 28.65 154.042 28.7635C153.928 28.877 153.777 28.9337 153.588 28.9337L143.691 28.9337V36.1685H152.964C153.172 36.1685 153.333 36.2252 153.446 36.3387C153.56 36.4522 153.616 36.613 153.616 36.821V37.2466C153.616 37.4357 153.55 37.5871 153.418 37.7005C153.304 37.814 153.153 37.8708 152.964 37.8708H143.691V45.3892H153.815C154.023 45.3892 154.184 45.446 154.297 45.5595C154.41 45.6729 154.467 45.8337 154.467 46.0418V46.4673C154.467 46.6565 154.401 46.8078 154.269 46.9213C154.155 47.0348 154.004 47.0915 153.815 47.0915H142.528Z" fill="#1E1E1E"/>
<path d="M168.049 47.3752C165.592 47.3752 163.749 46.6849 162.52 45.3041C161.291 43.9044 160.629 42.0319 160.535 39.6866C160.516 39.1759 160.506 38.3436 160.506 37.1899C160.506 36.0172 160.516 35.166 160.535 34.6364C160.629 32.291 161.291 30.428 162.52 29.0472C163.749 27.6476 165.592 26.9477 168.049 26.9477C169.732 26.9477 171.131 27.2598 172.246 27.884C173.362 28.4893 174.184 29.2647 174.714 30.2105C175.262 31.1373 175.564 32.0924 175.621 33.076V33.1327C175.621 33.284 175.564 33.407 175.451 33.5016C175.337 33.5961 175.196 33.6434 175.026 33.6434H174.458C174.118 33.6434 173.91 33.4448 173.834 33.0476C173.475 31.4399 172.823 30.305 171.878 29.643C170.933 28.981 169.656 28.65 168.049 28.65C166.272 28.65 164.892 29.1513 163.909 30.1537C162.926 31.1562 162.397 32.6977 162.321 34.7783C162.302 35.289 162.293 36.0739 162.293 37.1331C162.293 38.1923 162.302 38.9962 162.321 39.5447C162.397 41.6253 162.926 43.1668 163.909 44.1693C164.892 45.1717 166.272 45.6729 168.049 45.6729C169.656 45.6729 170.933 45.3419 171.878 44.6799C172.823 44.0179 173.475 42.8831 173.834 41.2754C173.91 40.8782 174.118 40.6796 174.458 40.6796H175.026C175.196 40.6796 175.337 40.7363 175.451 40.8498C175.583 40.9444 175.64 41.0768 175.621 41.247C175.564 42.2305 175.262 43.1952 174.714 44.1409C174.184 45.0677 173.362 45.8432 172.246 46.4673C171.131 47.0726 169.732 47.3752 168.049 47.3752Z" fill="#1E1E1E"/>
<path d="M187.598 47.0915C187.409 47.0915 187.258 47.0348 187.145 46.9213C187.031 46.8078 186.975 46.6565 186.975 46.4673V28.9337H181.36C181.171 28.9337 181.019 28.877 180.906 28.7635C180.793 28.65 180.736 28.4987 180.736 28.3096V27.884C180.736 27.6949 180.793 27.5435 180.906 27.4301C181.019 27.2977 181.171 27.2315 181.36 27.2315H194.348C194.556 27.2315 194.716 27.2882 194.83 27.4017C194.943 27.5152 195 27.6759 195 27.884V28.3096C195 28.4987 194.934 28.65 194.801 28.7635C194.688 28.877 194.537 28.9337 194.348 28.9337H188.761V46.4673C188.761 46.6565 188.695 46.8078 188.563 46.9213C188.449 47.0348 188.298 47.0915 188.109 47.0915H187.598Z" fill="#1E1E1E"/>
<path fill-rule="evenodd" clip-rule="evenodd" d="M74.3116 4.69936L78.3844 -5.4331e-05L79 0.710205L74.9272 5.40962L74.3116 4.69936Z" fill="#1E1E1E"/>
<path fill-rule="evenodd" clip-rule="evenodd" d="M74.3122 11.2785L84.087 -5.4331e-05L84.7025 0.710205L74.9277 11.9888L74.3122 11.2785Z" fill="#1E1E1E"/>
<path fill-rule="evenodd" clip-rule="evenodd" d="M74.3122 17.8577L89.789 -5.4331e-05L90.4045 0.710205L74.9278 18.568L74.3122 17.8577Z" fill="#1E1E1E"/>
<path fill-rule="evenodd" clip-rule="evenodd" d="M74.3117 24.4369L95.4904 -5.4331e-05L96.106 0.710205L74.9273 25.1472L74.3117 24.4369Z" fill="#1E1E1E"/>
<path fill-rule="evenodd" clip-rule="evenodd" d="M74.3116 31.016L98.7486 2.81953L99.3641 3.52979L74.9272 31.7263L74.3116 31.016Z" fill="#1E1E1E"/>
<path fill-rule="evenodd" clip-rule="evenodd" d="M74.3116 37.5954L98.7486 9.39887L99.3641 10.1091L74.9272 38.3056L74.3116 37.5954Z" fill="#1E1E1E"/>
<path fill-rule="evenodd" clip-rule="evenodd" d="M74.3116 44.1746L98.7486 15.9781L99.3641 16.6884L74.9272 44.8849L74.3116 44.1746Z" fill="#1E1E1E"/>
<path fill-rule="evenodd" clip-rule="evenodd" d="M76.7553 47.9342L98.7486 22.5573L99.3641 23.2676L77.3709 48.6444L76.7553 47.9342Z" fill="#1E1E1E"/>
<path fill-rule="evenodd" clip-rule="evenodd" d="M82.4573 47.9342L98.7486 29.1365L99.3641 29.8468L83.0728 48.6445L82.4573 47.9342Z" fill="#1E1E1E"/>
<path fill-rule="evenodd" clip-rule="evenodd" d="M88.1592 47.9339L98.7486 35.7154L99.3641 36.4257L88.7748 48.6441L88.1592 47.9339Z" fill="#1E1E1E"/>
<path fill-rule="evenodd" clip-rule="evenodd" d="M93.8612 47.9344L98.7486 42.2951L99.3641 43.0054L94.4767 48.6447L93.8612 47.9344Z" fill="#1E1E1E"/>
</svg>
